<mxfile host="app.diagrams.net" modified="2021-03-08T12:56:47.623Z" agent="5.0 (Windows NT 10.0; Win64; x64) AppleWebKit/537.36 (KHTML, like Gecko) Chrome/88.0.4324.150 Safari/537.36 OPR/74.0.3911.160" etag="fj0cbN_OSiBmKQyI8Xqv" version="14.4.4" type="github">
  <diagram id="dUKlriAhat97oubzxFMH" name="Page-1">
    <mxGraphModel dx="1032" dy="457" grid="1" gridSize="10" guides="1" tooltips="1" connect="1" arrows="1" fold="1" page="1" pageScale="1" pageWidth="827" pageHeight="1169" math="0" shadow="0">
      <root>
        <mxCell id="0" />
        <mxCell id="1" parent="0" />
        <mxCell id="S6z84EZazb9VoYRG6gCT-1" value="Employee" style="rounded=0;whiteSpace=wrap;html=1;" parent="1" vertex="1">
          <mxGeometry x="290" y="420" width="80" height="30" as="geometry" />
        </mxCell>
        <mxCell id="S6z84EZazb9VoYRG6gCT-2" value="Adress" style="ellipse;whiteSpace=wrap;html=1;" parent="1" vertex="1">
          <mxGeometry x="200" y="490" width="50" height="20" as="geometry" />
        </mxCell>
        <mxCell id="S6z84EZazb9VoYRG6gCT-3" value="Mail adress" style="ellipse;whiteSpace=wrap;html=1;" parent="1" vertex="1">
          <mxGeometry x="632" y="450" width="60" height="30" as="geometry" />
        </mxCell>
        <mxCell id="S6z84EZazb9VoYRG6gCT-4" value="Surname" style="ellipse;whiteSpace=wrap;html=1;" parent="1" vertex="1">
          <mxGeometry x="170" y="450" width="60" height="30" as="geometry" />
        </mxCell>
        <mxCell id="S6z84EZazb9VoYRG6gCT-5" value="Name" style="ellipse;whiteSpace=wrap;html=1;" parent="1" vertex="1">
          <mxGeometry x="200" y="420" width="40" height="20" as="geometry" />
        </mxCell>
        <mxCell id="S6z84EZazb9VoYRG6gCT-6" value="ID" style="ellipse;whiteSpace=wrap;html=1;" parent="1" vertex="1">
          <mxGeometry x="220" y="390" width="40" height="20" as="geometry" />
        </mxCell>
        <mxCell id="S6z84EZazb9VoYRG6gCT-7" value="Date of beginning" style="ellipse;whiteSpace=wrap;html=1;" parent="1" vertex="1">
          <mxGeometry x="260" y="500" width="70" height="40" as="geometry" />
        </mxCell>
        <mxCell id="S6z84EZazb9VoYRG6gCT-8" value="" style="endArrow=none;html=1;entryX=0;entryY=0.5;entryDx=0;entryDy=0;" parent="1" target="S6z84EZazb9VoYRG6gCT-1" edge="1">
          <mxGeometry width="50" height="50" relative="1" as="geometry">
            <mxPoint x="230" y="465" as="sourcePoint" />
            <mxPoint x="290" y="430" as="targetPoint" />
          </mxGeometry>
        </mxCell>
        <mxCell id="S6z84EZazb9VoYRG6gCT-9" value="" style="endArrow=none;html=1;entryX=0;entryY=0.25;entryDx=0;entryDy=0;exitX=1;exitY=0.5;exitDx=0;exitDy=0;" parent="1" source="S6z84EZazb9VoYRG6gCT-5" target="S6z84EZazb9VoYRG6gCT-1" edge="1">
          <mxGeometry width="50" height="50" relative="1" as="geometry">
            <mxPoint x="240" y="475" as="sourcePoint" />
            <mxPoint x="301.03999999999996" y="456.18999999999994" as="targetPoint" />
          </mxGeometry>
        </mxCell>
        <mxCell id="S6z84EZazb9VoYRG6gCT-10" value="" style="endArrow=none;html=1;entryX=0;entryY=0;entryDx=0;entryDy=0;exitX=0.943;exitY=0.73;exitDx=0;exitDy=0;exitPerimeter=0;" parent="1" source="S6z84EZazb9VoYRG6gCT-6" target="S6z84EZazb9VoYRG6gCT-1" edge="1">
          <mxGeometry width="50" height="50" relative="1" as="geometry">
            <mxPoint x="258.96" y="409.40999999999997" as="sourcePoint" />
            <mxPoint x="319.99999999999994" y="390.5999999999999" as="targetPoint" />
          </mxGeometry>
        </mxCell>
        <mxCell id="S6z84EZazb9VoYRG6gCT-11" value="" style="endArrow=none;html=1;entryX=0;entryY=1;entryDx=0;entryDy=0;exitX=1;exitY=0;exitDx=0;exitDy=0;" parent="1" source="S6z84EZazb9VoYRG6gCT-2" target="S6z84EZazb9VoYRG6gCT-1" edge="1">
          <mxGeometry width="50" height="50" relative="1" as="geometry">
            <mxPoint x="260" y="495" as="sourcePoint" />
            <mxPoint x="321.03999999999996" y="476.18999999999994" as="targetPoint" />
          </mxGeometry>
        </mxCell>
        <mxCell id="S6z84EZazb9VoYRG6gCT-13" value="" style="endArrow=none;html=1;entryX=0.25;entryY=1;entryDx=0;entryDy=0;exitX=0.5;exitY=0;exitDx=0;exitDy=0;" parent="1" source="S6z84EZazb9VoYRG6gCT-7" target="S6z84EZazb9VoYRG6gCT-1" edge="1">
          <mxGeometry width="50" height="50" relative="1" as="geometry">
            <mxPoint x="301.31999999999994" y="521.1600000000001" as="sourcePoint" />
            <mxPoint x="320" y="460" as="targetPoint" />
          </mxGeometry>
        </mxCell>
        <mxCell id="S6z84EZazb9VoYRG6gCT-14" value="Contact" style="rounded=0;whiteSpace=wrap;html=1;" parent="1" vertex="1">
          <mxGeometry x="521" y="410" width="90" height="30" as="geometry" />
        </mxCell>
        <mxCell id="S6z84EZazb9VoYRG6gCT-15" value="ID" style="ellipse;whiteSpace=wrap;html=1;" parent="1" vertex="1">
          <mxGeometry x="632" y="370" width="60" height="30" as="geometry" />
        </mxCell>
        <mxCell id="S6z84EZazb9VoYRG6gCT-16" value="Phone Number" style="ellipse;whiteSpace=wrap;html=1;" parent="1" vertex="1">
          <mxGeometry x="660" y="410" width="60" height="30" as="geometry" />
        </mxCell>
        <mxCell id="S6z84EZazb9VoYRG6gCT-17" value="" style="endArrow=none;html=1;entryX=0;entryY=1;entryDx=0;entryDy=0;exitX=1;exitY=0;exitDx=0;exitDy=0;" parent="1" source="S6z84EZazb9VoYRG6gCT-14" target="S6z84EZazb9VoYRG6gCT-15" edge="1">
          <mxGeometry width="50" height="50" relative="1" as="geometry">
            <mxPoint x="432" y="490" as="sourcePoint" />
            <mxPoint x="482" y="440" as="targetPoint" />
          </mxGeometry>
        </mxCell>
        <mxCell id="S6z84EZazb9VoYRG6gCT-18" value="" style="endArrow=none;html=1;exitX=1;exitY=0.5;exitDx=0;exitDy=0;entryX=0;entryY=0.5;entryDx=0;entryDy=0;" parent="1" source="S6z84EZazb9VoYRG6gCT-14" target="S6z84EZazb9VoYRG6gCT-16" edge="1">
          <mxGeometry width="50" height="50" relative="1" as="geometry">
            <mxPoint x="621" y="420" as="sourcePoint" />
            <mxPoint x="641" y="425" as="targetPoint" />
          </mxGeometry>
        </mxCell>
        <mxCell id="S6z84EZazb9VoYRG6gCT-19" value="" style="endArrow=none;html=1;entryX=0;entryY=0;entryDx=0;entryDy=0;exitX=1;exitY=1;exitDx=0;exitDy=0;" parent="1" source="S6z84EZazb9VoYRG6gCT-14" target="S6z84EZazb9VoYRG6gCT-3" edge="1">
          <mxGeometry width="50" height="50" relative="1" as="geometry">
            <mxPoint x="631" y="430" as="sourcePoint" />
            <mxPoint x="660.7867965644114" y="415.6066017177943" as="targetPoint" />
          </mxGeometry>
        </mxCell>
        <mxCell id="S6z84EZazb9VoYRG6gCT-20" value="Has" style="rhombus;whiteSpace=wrap;html=1;" parent="1" vertex="1">
          <mxGeometry x="360" y="325" width="74" height="40" as="geometry" />
        </mxCell>
        <mxCell id="S6z84EZazb9VoYRG6gCT-23" value="Bank details" style="rounded=0;whiteSpace=wrap;html=1;" parent="1" vertex="1">
          <mxGeometry x="110" y="255" width="80" height="25" as="geometry" />
        </mxCell>
        <mxCell id="S6z84EZazb9VoYRG6gCT-24" value="ID" style="ellipse;whiteSpace=wrap;html=1;" parent="1" vertex="1">
          <mxGeometry x="81" y="205" width="40" height="20" as="geometry" />
        </mxCell>
        <mxCell id="S6z84EZazb9VoYRG6gCT-25" value="Number account" style="ellipse;whiteSpace=wrap;html=1;" parent="1" vertex="1">
          <mxGeometry y="225" width="70" height="30" as="geometry" />
        </mxCell>
        <mxCell id="S6z84EZazb9VoYRG6gCT-26" value="Name owner" style="ellipse;whiteSpace=wrap;html=1;" parent="1" vertex="1">
          <mxGeometry x="10" y="265" width="60" height="30" as="geometry" />
        </mxCell>
        <mxCell id="S6z84EZazb9VoYRG6gCT-28" style="edgeStyle=orthogonalEdgeStyle;rounded=0;orthogonalLoop=1;jettySize=auto;html=1;exitX=0.5;exitY=1;exitDx=0;exitDy=0;" parent="1" source="S6z84EZazb9VoYRG6gCT-26" target="S6z84EZazb9VoYRG6gCT-26" edge="1">
          <mxGeometry relative="1" as="geometry" />
        </mxCell>
        <mxCell id="S6z84EZazb9VoYRG6gCT-29" value="Bic code" style="ellipse;whiteSpace=wrap;html=1;" parent="1" vertex="1">
          <mxGeometry x="41" y="305" width="40" height="30" as="geometry" />
        </mxCell>
        <mxCell id="S6z84EZazb9VoYRG6gCT-30" value="" style="endArrow=none;html=1;exitX=0.7;exitY=1.017;exitDx=0;exitDy=0;entryX=0.25;entryY=0;entryDx=0;entryDy=0;exitPerimeter=0;" parent="1" source="S6z84EZazb9VoYRG6gCT-24" target="S6z84EZazb9VoYRG6gCT-23" edge="1">
          <mxGeometry width="50" height="50" relative="1" as="geometry">
            <mxPoint x="231" y="335" as="sourcePoint" />
            <mxPoint x="281" y="285" as="targetPoint" />
          </mxGeometry>
        </mxCell>
        <mxCell id="S6z84EZazb9VoYRG6gCT-31" value="" style="endArrow=none;html=1;exitX=1;exitY=0.5;exitDx=0;exitDy=0;" parent="1" source="S6z84EZazb9VoYRG6gCT-25" edge="1">
          <mxGeometry width="50" height="50" relative="1" as="geometry">
            <mxPoint x="125.3455876171846" y="231.9678568426325" as="sourcePoint" />
            <mxPoint x="111" y="255" as="targetPoint" />
          </mxGeometry>
        </mxCell>
        <mxCell id="S6z84EZazb9VoYRG6gCT-32" value="" style="endArrow=none;html=1;exitX=1;exitY=0.5;exitDx=0;exitDy=0;entryX=0;entryY=0.5;entryDx=0;entryDy=0;" parent="1" source="S6z84EZazb9VoYRG6gCT-26" target="S6z84EZazb9VoYRG6gCT-23" edge="1">
          <mxGeometry width="50" height="50" relative="1" as="geometry">
            <mxPoint x="135.3455876171846" y="241.9678568426325" as="sourcePoint" />
            <mxPoint x="150" y="275" as="targetPoint" />
          </mxGeometry>
        </mxCell>
        <mxCell id="S6z84EZazb9VoYRG6gCT-33" value="" style="endArrow=none;html=1;exitX=1;exitY=0;exitDx=0;exitDy=0;entryX=0;entryY=1;entryDx=0;entryDy=0;" parent="1" source="S6z84EZazb9VoYRG6gCT-29" target="S6z84EZazb9VoYRG6gCT-23" edge="1">
          <mxGeometry width="50" height="50" relative="1" as="geometry">
            <mxPoint x="145.3455876171846" y="251.9678568426325" as="sourcePoint" />
            <mxPoint x="160" y="285" as="targetPoint" />
          </mxGeometry>
        </mxCell>
        <mxCell id="S6z84EZazb9VoYRG6gCT-34" value="City" style="rounded=0;whiteSpace=wrap;html=1;" parent="1" vertex="1">
          <mxGeometry x="521" y="580" width="59" height="30" as="geometry" />
        </mxCell>
        <mxCell id="S6z84EZazb9VoYRG6gCT-35" value="Name" style="ellipse;whiteSpace=wrap;html=1;" parent="1" vertex="1">
          <mxGeometry x="651" y="570" width="60" height="30" as="geometry" />
        </mxCell>
        <mxCell id="S6z84EZazb9VoYRG6gCT-36" value="Postal Code" style="ellipse;whiteSpace=wrap;html=1;" parent="1" vertex="1">
          <mxGeometry x="651" y="610" width="60" height="30" as="geometry" />
        </mxCell>
        <mxCell id="S6z84EZazb9VoYRG6gCT-37" value="Country" style="ellipse;whiteSpace=wrap;html=1;" parent="1" vertex="1">
          <mxGeometry x="602" y="640" width="60" height="30" as="geometry" />
        </mxCell>
        <mxCell id="S6z84EZazb9VoYRG6gCT-38" value="" style="endArrow=none;html=1;exitX=1;exitY=1;exitDx=0;exitDy=0;entryX=0;entryY=0;entryDx=0;entryDy=0;" parent="1" source="S6z84EZazb9VoYRG6gCT-34" target="S6z84EZazb9VoYRG6gCT-37" edge="1">
          <mxGeometry width="50" height="50" relative="1" as="geometry">
            <mxPoint x="391" y="590" as="sourcePoint" />
            <mxPoint x="441" y="540" as="targetPoint" />
          </mxGeometry>
        </mxCell>
        <mxCell id="S6z84EZazb9VoYRG6gCT-39" value="" style="endArrow=none;html=1;entryX=1;entryY=0.667;entryDx=0;entryDy=0;exitX=0;exitY=0.5;exitDx=0;exitDy=0;entryPerimeter=0;" parent="1" source="S6z84EZazb9VoYRG6gCT-36" target="S6z84EZazb9VoYRG6gCT-34" edge="1">
          <mxGeometry width="50" height="50" relative="1" as="geometry">
            <mxPoint x="401" y="600" as="sourcePoint" />
            <mxPoint x="451" y="550" as="targetPoint" />
          </mxGeometry>
        </mxCell>
        <mxCell id="S6z84EZazb9VoYRG6gCT-40" value="" style="endArrow=none;html=1;exitX=1;exitY=0.25;exitDx=0;exitDy=0;entryX=0;entryY=0.667;entryDx=0;entryDy=0;entryPerimeter=0;" parent="1" source="S6z84EZazb9VoYRG6gCT-34" target="S6z84EZazb9VoYRG6gCT-35" edge="1">
          <mxGeometry width="50" height="50" relative="1" as="geometry">
            <mxPoint x="411" y="610" as="sourcePoint" />
            <mxPoint x="461" y="560" as="targetPoint" />
          </mxGeometry>
        </mxCell>
        <mxCell id="S6z84EZazb9VoYRG6gCT-41" value="Department" style="rounded=0;whiteSpace=wrap;html=1;" parent="1" vertex="1">
          <mxGeometry x="540" y="200" width="80" height="30" as="geometry" />
        </mxCell>
        <mxCell id="S6z84EZazb9VoYRG6gCT-42" value="ID" style="ellipse;whiteSpace=wrap;html=1;" parent="1" vertex="1">
          <mxGeometry x="632" y="530" width="60" height="30" as="geometry" />
        </mxCell>
        <mxCell id="S6z84EZazb9VoYRG6gCT-43" value="" style="endArrow=none;html=1;entryX=0;entryY=0.5;entryDx=0;entryDy=0;" parent="1" target="S6z84EZazb9VoYRG6gCT-42" edge="1">
          <mxGeometry width="50" height="50" relative="1" as="geometry">
            <mxPoint x="580" y="580" as="sourcePoint" />
            <mxPoint x="650.9999999999998" y="562.51" as="targetPoint" />
          </mxGeometry>
        </mxCell>
        <mxCell id="S6z84EZazb9VoYRG6gCT-45" value="ID" style="ellipse;whiteSpace=wrap;html=1;" parent="1" vertex="1">
          <mxGeometry x="661" y="185" width="40" height="20" as="geometry" />
        </mxCell>
        <mxCell id="S6z84EZazb9VoYRG6gCT-46" value="Name" style="ellipse;whiteSpace=wrap;html=1;" parent="1" vertex="1">
          <mxGeometry x="661" y="220" width="50" height="20" as="geometry" />
        </mxCell>
        <mxCell id="S6z84EZazb9VoYRG6gCT-47" value="" style="endArrow=none;html=1;exitX=0;exitY=0.5;exitDx=0;exitDy=0;entryX=1;entryY=0.25;entryDx=0;entryDy=0;" parent="1" source="S6z84EZazb9VoYRG6gCT-45" target="S6z84EZazb9VoYRG6gCT-41" edge="1">
          <mxGeometry width="50" height="50" relative="1" as="geometry">
            <mxPoint x="707" y="347.5" as="sourcePoint" />
            <mxPoint x="757" y="297.5" as="targetPoint" />
          </mxGeometry>
        </mxCell>
        <mxCell id="S6z84EZazb9VoYRG6gCT-48" value="" style="endArrow=none;html=1;exitX=0;exitY=0.5;exitDx=0;exitDy=0;entryX=1;entryY=0.5;entryDx=0;entryDy=0;" parent="1" source="S6z84EZazb9VoYRG6gCT-46" target="S6z84EZazb9VoYRG6gCT-41" edge="1">
          <mxGeometry width="50" height="50" relative="1" as="geometry">
            <mxPoint x="832" y="187.5" as="sourcePoint" />
            <mxPoint x="797" y="205" as="targetPoint" />
          </mxGeometry>
        </mxCell>
        <mxCell id="7Pe9qCtPHlcF41btI4ql-29" value="Work Position" style="rounded=0;whiteSpace=wrap;html=1;" parent="1" vertex="1">
          <mxGeometry x="414" y="265" width="90" height="30" as="geometry" />
        </mxCell>
        <mxCell id="7Pe9qCtPHlcF41btI4ql-30" value="ID" style="ellipse;whiteSpace=wrap;html=1;" parent="1" vertex="1">
          <mxGeometry x="529" y="280" width="70" height="30" as="geometry" />
        </mxCell>
        <mxCell id="7Pe9qCtPHlcF41btI4ql-31" value="Name" style="ellipse;whiteSpace=wrap;html=1;" parent="1" vertex="1">
          <mxGeometry x="504" y="315" width="60" height="30" as="geometry" />
        </mxCell>
        <mxCell id="7Pe9qCtPHlcF41btI4ql-32" value="" style="endArrow=none;html=1;exitX=1;exitY=0.5;exitDx=0;exitDy=0;" parent="1" source="7Pe9qCtPHlcF41btI4ql-29" edge="1">
          <mxGeometry width="50" height="50" relative="1" as="geometry">
            <mxPoint x="500" y="280" as="sourcePoint" />
            <mxPoint x="529" y="295" as="targetPoint" />
          </mxGeometry>
        </mxCell>
        <mxCell id="7Pe9qCtPHlcF41btI4ql-33" value="" style="endArrow=none;html=1;entryX=0.256;entryY=0.111;entryDx=0;entryDy=0;exitX=1;exitY=1;exitDx=0;exitDy=0;entryPerimeter=0;" parent="1" source="7Pe9qCtPHlcF41btI4ql-29" target="7Pe9qCtPHlcF41btI4ql-31" edge="1">
          <mxGeometry width="50" height="50" relative="1" as="geometry">
            <mxPoint x="375" y="185" as="sourcePoint" />
            <mxPoint x="404.78679656441136" y="170.60660171779432" as="targetPoint" />
          </mxGeometry>
        </mxCell>
        <mxCell id="7Pe9qCtPHlcF41btI4ql-35" value="Salary" style="ellipse;whiteSpace=wrap;html=1;" parent="1" vertex="1">
          <mxGeometry x="340" y="520" width="50" height="20" as="geometry" />
        </mxCell>
        <mxCell id="7Pe9qCtPHlcF41btI4ql-36" value="" style="endArrow=none;html=1;exitX=0.5;exitY=0;exitDx=0;exitDy=0;entryX=0.5;entryY=1;entryDx=0;entryDy=0;" parent="1" source="7Pe9qCtPHlcF41btI4ql-35" target="S6z84EZazb9VoYRG6gCT-1" edge="1">
          <mxGeometry width="50" height="50" relative="1" as="geometry">
            <mxPoint x="400" y="525" as="sourcePoint" />
            <mxPoint x="323" y="480" as="targetPoint" />
          </mxGeometry>
        </mxCell>
        <mxCell id="7Pe9qCtPHlcF41btI4ql-38" value="" style="endArrow=classic;html=1;exitX=1;exitY=0.25;exitDx=0;exitDy=0;entryX=0;entryY=0.5;entryDx=0;entryDy=0;" parent="1" source="S6z84EZazb9VoYRG6gCT-1" target="S6z84EZazb9VoYRG6gCT-14" edge="1">
          <mxGeometry width="50" height="50" relative="1" as="geometry">
            <mxPoint x="490" y="370" as="sourcePoint" />
            <mxPoint x="540" y="320" as="targetPoint" />
            <Array as="points">
              <mxPoint x="450" y="390" />
            </Array>
          </mxGeometry>
        </mxCell>
        <mxCell id="AxKbAEhmJMji4_Gcyk8H-4" value="" style="endArrow=none;html=1;entryX=0.5;entryY=1;entryDx=0;entryDy=0;exitX=1;exitY=0;exitDx=0;exitDy=0;" edge="1" parent="1" source="S6z84EZazb9VoYRG6gCT-20" target="7Pe9qCtPHlcF41btI4ql-29">
          <mxGeometry width="50" height="50" relative="1" as="geometry">
            <mxPoint x="420" y="320" as="sourcePoint" />
            <mxPoint x="360" y="350" as="targetPoint" />
          </mxGeometry>
        </mxCell>
        <mxCell id="AxKbAEhmJMji4_Gcyk8H-5" value="" style="endArrow=none;html=1;exitX=0.5;exitY=0;exitDx=0;exitDy=0;entryX=0;entryY=1;entryDx=0;entryDy=0;" edge="1" parent="1" source="S6z84EZazb9VoYRG6gCT-1" target="S6z84EZazb9VoYRG6gCT-20">
          <mxGeometry width="50" height="50" relative="1" as="geometry">
            <mxPoint x="310" y="400" as="sourcePoint" />
            <mxPoint x="360" y="350" as="targetPoint" />
          </mxGeometry>
        </mxCell>
        <mxCell id="AxKbAEhmJMji4_Gcyk8H-7" value="" style="endArrow=none;html=1;entryX=0.75;entryY=0;entryDx=0;entryDy=0;exitX=0;exitY=1;exitDx=0;exitDy=0;" edge="1" parent="1" source="S6z84EZazb9VoYRG6gCT-41" target="7Pe9qCtPHlcF41btI4ql-29">
          <mxGeometry width="50" height="50" relative="1" as="geometry">
            <mxPoint x="435.5" y="355" as="sourcePoint" />
            <mxPoint x="479" y="315" as="targetPoint" />
          </mxGeometry>
        </mxCell>
        <mxCell id="AxKbAEhmJMji4_Gcyk8H-8" value="1..N" style="edgeLabel;html=1;align=center;verticalAlign=middle;resizable=0;points=[];" vertex="1" connectable="0" parent="1">
          <mxGeometry x="480.0026897662198" y="600.0014951189933" as="geometry">
            <mxPoint x="18" y="-346" as="offset" />
          </mxGeometry>
        </mxCell>
        <mxCell id="AxKbAEhmJMji4_Gcyk8H-9" value="" style="endArrow=none;html=1;exitX=1;exitY=0.5;exitDx=0;exitDy=0;entryX=0.25;entryY=0;entryDx=0;entryDy=0;" edge="1" parent="1" source="S6z84EZazb9VoYRG6gCT-23" target="S6z84EZazb9VoYRG6gCT-1">
          <mxGeometry width="50" height="50" relative="1" as="geometry">
            <mxPoint x="310" y="320" as="sourcePoint" />
            <mxPoint x="360" y="270" as="targetPoint" />
            <Array as="points">
              <mxPoint x="280" y="320" />
            </Array>
          </mxGeometry>
        </mxCell>
        <mxCell id="AxKbAEhmJMji4_Gcyk8H-11" value="" style="endArrow=none;html=1;exitX=0;exitY=0.25;exitDx=0;exitDy=0;entryX=1;entryY=1;entryDx=0;entryDy=0;" edge="1" parent="1" source="S6z84EZazb9VoYRG6gCT-34" target="S6z84EZazb9VoYRG6gCT-1">
          <mxGeometry width="50" height="50" relative="1" as="geometry">
            <mxPoint x="310" y="480" as="sourcePoint" />
            <mxPoint x="360" y="430" as="targetPoint" />
            <Array as="points">
              <mxPoint x="460" y="480" />
            </Array>
          </mxGeometry>
        </mxCell>
        <mxCell id="AxKbAEhmJMji4_Gcyk8H-12" value="1..N" style="edgeLabel;html=1;align=center;verticalAlign=middle;resizable=0;points=[];" vertex="1" connectable="0" parent="1">
          <mxGeometry x="504.0026897662198" y="630.0014951189933" as="geometry">
            <mxPoint x="7" y="-63" as="offset" />
          </mxGeometry>
        </mxCell>
      </root>
    </mxGraphModel>
  </diagram>
</mxfile>
